<svg width="118" height="25" viewBox="0 0 118 25" fill="none" xmlns="http://www.w3.org/2000/svg">
<path d="M40.9643 18.671C40.871 18.7625 40.7162 18.8761 40.4993 19.0127C40.2823 19.1492 39.9993 19.2858 39.6573 19.423C39.3154 19.5601 38.8821 19.677 38.3788 19.7761C37.8756 19.8752 37.2973 19.9241 36.647 19.9241C35.3918 19.9241 34.307 19.7272 33.3932 19.3315C32.4793 18.9358 31.7235 18.3789 31.1264 17.679C30.5292 16.9791 30.0921 16.137 29.8129 15.1716C29.5338 14.2063 29.3945 13.1469 29.3945 11.9923C29.3945 10.8377 29.5454 9.76945 29.8479 8.79013C30.1503 7.81081 30.6031 6.96295 31.208 6.24846C31.8129 5.53398 32.5681 4.97572 33.4748 4.57307C34.3815 4.17042 35.4462 3.96973 36.6703 3.96973C37.2746 3.96973 37.8212 4.02307 38.3089 4.1285C38.7966 4.23393 39.2221 4.36031 39.5874 4.50448C39.9526 4.64865 40.2545 4.80044 40.4941 4.96048L41.0401 5.35932C41.1793 5.48126 41.2991 5.62606 41.4002 5.79246C41.5012 5.95886 41.5511 6.14177 41.5511 6.33865C41.5511 6.64349 41.4345 6.94643 41.2026 7.25065C40.9721 7.55279 40.7156 7.83496 40.4358 8.09406L39.8076 7.53518C39.5744 7.34465 39.3154 7.17825 39.0291 7.02709C38.7428 6.87594 38.4171 6.76162 38.0531 6.66255C37.6891 6.56347 37.2759 6.51457 36.8329 6.51457C36.0427 6.51457 35.3802 6.6708 34.8459 6.982C34.3116 7.2932 33.8809 7.69966 33.5557 8.20139C33.2306 8.70312 32.9987 9.27661 32.8582 9.92251C32.7177 10.5684 32.649 11.2257 32.649 11.8939C32.649 12.6083 32.719 13.2911 32.8582 13.9452C32.9975 14.5994 33.2377 15.1761 33.579 15.6771C33.9204 16.1782 34.3653 16.5815 34.9152 16.8851C35.465 17.1887 36.1509 17.3411 36.9721 17.3411C37.4061 17.3411 37.805 17.2878 38.169 17.1823C38.5039 17.0877 38.8272 16.9576 39.1334 16.7943C39.3913 16.6565 39.6362 16.4964 39.8652 16.3161L40.3885 15.8829L40.7136 16.264C40.8385 16.4174 40.9548 16.5772 41.0621 16.7428C41.1667 16.9034 41.26 17.0708 41.3412 17.2439C41.4189 17.4116 41.4578 17.5634 41.4578 17.6999C41.4578 17.8968 41.4189 18.0645 41.3412 18.208C41.2635 18.3516 41.1405 18.497 40.9695 18.664L40.9643 18.671ZM52.9421 16.9232C52.9421 18.1312 53.1208 19.0101 53.4796 19.5601C53.1992 19.6668 52.9382 19.7443 52.696 19.7888C52.4455 19.8354 52.1911 19.8584 51.9363 19.8574C51.3754 19.8574 50.9499 19.7507 50.6617 19.5366C50.3735 19.3226 50.1902 19.0171 50.1125 18.6196C49.7692 18.9714 49.3171 19.2693 48.7563 19.5151C48.1954 19.7608 47.5089 19.8815 46.6987 19.8815C46.2717 19.8807 45.8469 19.8233 45.4357 19.7107C45.0147 19.5963 44.6326 19.4096 44.2894 19.1505C43.9461 18.8914 43.6657 18.5446 43.4474 18.1102C43.2291 17.6758 43.1203 17.1468 43.1203 16.5225C43.1203 15.7451 43.3114 15.1125 43.6935 14.6254C44.0758 14.1372 44.5679 13.7421 45.1313 13.4708C45.7142 13.1888 46.3314 12.9945 47.0018 12.8884L48.8489 12.6827L49.3994 12.6598H49.902V12.2425C49.902 11.6551 49.742 11.2378 49.4227 10.9901C49.1034 10.7424 48.5846 10.6186 47.8683 10.6186C47.198 10.6186 46.6015 10.7265 46.0795 10.9393C45.5575 11.1521 45.0465 11.3978 44.5478 11.6728C44.3295 11.4125 44.154 11.1267 44.0219 10.8129C43.8898 10.4992 43.823 10.2667 43.823 10.1143C43.823 9.90028 43.9435 9.69388 44.1857 9.49509C44.428 9.2963 44.7589 9.11657 45.1792 8.95653C45.5996 8.79648 46.0834 8.66628 46.63 8.56657C47.1766 8.46686 47.7524 8.41733 48.3605 8.41733C49.2025 8.41733 49.9149 8.50179 50.4998 8.66946C51.0846 8.83713 51.56 9.09752 51.9259 9.44873C52.2918 9.79993 52.5541 10.2401 52.7096 10.7672C52.865 11.2943 52.9427 11.9104 52.9427 12.6128V16.9232H52.9421ZM49.9499 14.2634H49.6228C49.5127 14.2634 49.4039 14.2717 49.2958 14.2863L48.1384 14.4235C47.7498 14.4851 47.4169 14.5918 47.1216 14.7448C46.8262 14.8979 46.584 15.0967 46.3962 15.3418C46.2084 15.587 46.1158 15.9007 46.1158 16.2818C46.1158 16.7098 46.2401 17.0725 46.4901 17.371C46.7401 17.6695 47.1604 17.8181 47.753 17.8181C48.0379 17.8198 48.3215 17.781 48.595 17.7031C48.8413 17.6349 49.0772 17.5347 49.2964 17.4052C49.4991 17.2827 49.6591 17.1493 49.7757 17.0039C49.8923 16.8584 49.9505 16.7244 49.9505 16.6025V14.2634H49.9499ZM58.7645 9.74659C59.0132 9.45635 59.4018 9.1623 59.9303 8.85745C60.4588 8.5526 61.1265 8.41034 61.9348 8.41034C62.5099 8.41034 63.0578 8.5056 63.5786 8.69613C64.0993 8.88666 64.5611 9.19786 64.9645 9.62465C65.368 10.0514 65.6912 10.6186 65.9321 11.3216C66.1731 12.0247 66.2935 12.8891 66.2935 13.9128C66.2935 15.1049 66.1536 16.0874 65.8739 16.8597C65.5941 17.632 65.2262 18.2442 64.7903 18.6939C64.3544 19.1435 63.8538 19.456 63.3104 19.6452C62.767 19.8345 62.2224 19.9202 61.6783 19.9202C61.2276 19.9202 60.8351 19.8707 60.5015 19.771C60.168 19.6713 59.8837 19.5614 59.6505 19.4382C59.4174 19.315 59.2386 19.1937 59.1149 19.0711L58.8817 18.819V24.4555H55.7082V8.73043L55.9906 8.6847C56.1001 8.66811 56.2103 8.65666 56.3209 8.65041L56.7678 8.63898C57.2859 8.63898 57.7263 8.72344 58.0871 8.89111C58.4478 9.05877 58.67 9.33568 58.7703 9.7396L58.7645 9.74659ZM62.9743 13.9891C62.9743 13.5305 62.9354 13.1031 62.8577 12.7049C62.78 12.3067 62.6524 11.9637 62.4743 11.6728C62.3011 11.3874 62.0519 11.1536 61.7535 10.9965C61.451 10.8358 61.0831 10.7551 60.6492 10.7551C59.9983 10.7551 59.5449 10.8777 59.2891 11.1222C59.0333 11.3667 58.9057 11.6347 58.9057 11.925V16.786C59.0288 16.9086 59.2503 17.0528 59.5683 17.2217C59.8863 17.3906 60.2548 17.4738 60.6725 17.4738C61.4627 17.4738 62.0443 17.169 62.4167 16.5568C62.7891 15.9445 62.9749 15.0897 62.9749 13.9884L62.9743 13.9891ZM68.7488 17.9267C68.64 17.6218 68.5694 17.2998 68.5383 16.9632L68.4917 15.9534V5.32058L68.8427 5.27485L69.1925 5.24056L69.5668 5.22913C69.8178 5.22927 70.0682 5.25224 70.3148 5.29772C70.5582 5.34114 70.7894 5.43488 70.9929 5.57272C71.2015 5.71729 71.3702 5.91043 71.4839 6.13478C71.6089 6.37167 71.6717 6.68096 71.6717 7.06329V8.69106H74.9456V11.0073H71.6717V15.8975C71.6717 16.9645 72.116 17.4967 73.0046 17.4967C73.2228 17.4967 73.4288 17.4624 73.6244 17.3938C73.82 17.3252 73.9935 17.249 74.1503 17.1652C74.2941 17.089 74.4311 17.0008 74.5596 16.9016L74.8057 16.6952C75.0389 17.0318 75.2183 17.3227 75.3433 17.5685C75.4683 17.8143 75.5311 18.0448 75.5311 18.2607C75.5311 18.4614 75.4495 18.6583 75.285 18.8514C75.1205 19.0444 74.8912 19.2216 74.5952 19.3836C74.2992 19.5455 73.9411 19.6757 73.5201 19.7773C73.068 19.8812 72.6049 19.9317 72.1406 19.9279C71.1736 19.9279 70.4217 19.7437 69.8841 19.3772C69.3589 19.0263 68.9617 18.5201 68.7501 17.9324L68.7488 17.9267ZM82.9992 17.6282C83.3904 17.6282 83.7343 17.5863 84.0322 17.5011C84.3302 17.416 84.5957 17.3144 84.8288 17.1919C85.062 17.0693 85.2667 16.9359 85.4389 16.7905L85.9085 16.3891C86.1283 16.6671 86.3243 16.9623 86.4946 17.2719C86.698 17.6313 86.799 17.926 86.799 18.161C86.799 18.4976 86.6047 18.8025 86.2148 19.0781C85.8878 19.3226 85.4234 19.5328 84.8237 19.7088C84.2239 19.8847 83.518 19.9723 82.7078 19.9723C81.9746 19.9723 81.2538 19.8809 80.5446 19.6973C79.8354 19.5138 79.2039 19.1931 78.6508 18.7345C78.0977 18.276 77.6489 17.6548 77.3057 16.8889C76.9624 16.123 76.7914 15.1424 76.7914 13.9656C76.7914 13.0027 76.9436 12.1733 77.2474 11.4779C77.5511 10.7824 77.9566 10.2051 78.4637 9.74659C78.9708 9.28805 79.5427 8.95272 80.1819 8.73678C80.8211 8.52085 81.4759 8.41605 82.1463 8.41605C83.0193 8.41605 83.7589 8.54943 84.3677 8.81744C84.9765 9.08545 85.47 9.44428 85.8521 9.8952C86.2343 10.3461 86.5108 10.8618 86.6824 11.4429C86.8541 12.0241 86.9396 12.635 86.9396 13.2771V13.5978L86.9279 13.9878L86.9046 14.3892C86.8996 14.4931 86.8879 14.5966 86.8696 14.6991H79.9721C80.0349 15.54 80.3004 16.2392 80.77 16.7975C81.2395 17.3557 81.9811 17.6339 82.9979 17.6339L82.9992 17.6282ZM84.0646 12.9729C84.0646 12.2394 83.9195 11.643 83.6294 11.1845C83.3392 10.7259 82.8179 10.4966 82.0659 10.4966C81.4228 10.4966 80.9092 10.7145 80.5258 11.1508C80.1424 11.5871 79.9429 12.1943 79.9429 12.9735H84.0581L84.0646 12.9729ZM92.4751 9.7974C92.5684 9.66085 92.6927 9.50969 92.8488 9.34266C93.0175 9.16581 93.2104 9.01277 93.422 8.88794C93.6474 8.75139 93.8974 8.6377 94.17 8.54689C94.4526 8.45424 94.749 8.4081 95.0469 8.41034C95.2348 8.41034 95.433 8.42558 95.6428 8.45607C95.8526 8.48655 96.0476 8.54371 96.227 8.62754C96.4064 8.71138 96.5508 8.81807 96.6596 8.96859C96.7684 9.11911 96.8235 9.29059 96.8235 9.50208C96.8235 9.83551 96.7373 10.2185 96.5664 10.6516C96.3954 11.0847 96.2231 11.4531 96.0521 11.7592C95.793 11.5452 95.521 11.3807 95.2568 11.2664C94.9925 11.1521 94.6804 11.0949 94.3216 11.0949C93.8384 11.0949 93.433 11.2327 93.1059 11.5077C92.7788 11.7827 92.6137 12.113 92.6137 12.4966V19.9183H89.4402V8.73742L89.7206 8.69169C89.8292 8.67511 89.9386 8.66366 90.0483 8.65739L90.4926 8.64596C90.9913 8.64596 91.4239 8.74123 91.7905 8.92985C92.1571 9.11848 92.3864 9.41062 92.4803 9.80438L92.4751 9.7974ZM101.516 9.7974C101.61 9.66085 101.735 9.50969 101.891 9.34266C102.059 9.16581 102.252 9.01277 102.464 8.88794C102.689 8.75139 102.939 8.6377 103.212 8.54689C103.495 8.45424 103.791 8.4081 104.089 8.41034C104.288 8.4115 104.488 8.42678 104.685 8.45607C104.895 8.48655 105.09 8.54371 105.27 8.62754C105.44 8.7043 105.589 8.8215 105.702 8.96859C105.811 9.11276 105.866 9.29059 105.866 9.50208C105.866 9.83551 105.78 10.2185 105.609 10.6516C105.438 11.0847 105.266 11.4531 105.094 11.7592C104.829 11.5452 104.563 11.3807 104.299 11.2664C104.036 11.1521 103.723 11.0949 103.364 11.0949C102.88 11.0949 102.476 11.2327 102.148 11.5077C101.82 11.7827 101.657 12.113 101.657 12.4966V19.9183H98.4834V8.73742L98.7639 8.69169C98.8725 8.67511 98.9818 8.66366 99.0916 8.65739L99.5359 8.64596C100.035 8.64596 100.467 8.74123 100.833 8.92985C101.008 9.01523 101.161 9.13823 101.28 9.28967C101.4 9.44111 101.483 9.61706 101.523 9.80438L101.516 9.7974ZM116.692 16.9169C116.692 18.1248 116.871 19.0038 117.23 19.5538C116.949 19.6605 116.688 19.738 116.446 19.7824C116.204 19.8269 115.951 19.851 115.686 19.851C115.125 19.851 114.7 19.7443 114.412 19.5303C114.124 19.3163 113.939 19.0108 113.861 18.6132C113.518 18.9651 113.067 19.2629 112.505 19.5087C111.944 19.7545 111.258 19.8752 110.448 19.8752C110.027 19.8752 109.606 19.8116 109.185 19.7037C108.769 19.5917 108.38 19.4014 108.039 19.1435C107.696 18.8844 107.415 18.5376 107.197 18.1032C106.979 17.6688 106.87 17.1398 106.87 16.5155C106.87 15.7381 107.06 15.1056 107.442 14.6184C107.825 14.1313 108.304 13.7458 108.88 13.4638C109.457 13.1818 110.08 12.9875 110.752 12.8814L112.599 12.6757L113.148 12.6528H113.651V12.2355C113.651 11.6481 113.491 11.2308 113.172 10.9831C112.852 10.7354 112.334 10.6116 111.617 10.6116C110.947 10.6116 110.351 10.7196 109.83 10.9323C109.305 11.1474 108.794 11.3923 108.298 11.6659C108.08 11.4055 107.903 11.1197 107.771 10.8059C107.64 10.4922 107.573 10.2597 107.573 10.1073C107.573 9.8933 107.694 9.68689 107.936 9.4881C108.178 9.28932 108.509 9.10958 108.929 8.94954C109.35 8.78949 109.834 8.6593 110.38 8.55959C110.951 8.45798 111.53 8.40802 112.111 8.41034C112.953 8.41034 113.665 8.49481 114.25 8.66247C114.835 8.83014 115.31 9.09053 115.676 9.44174C116.043 9.79295 116.304 10.2331 116.453 10.7602C116.602 11.2873 116.686 11.9034 116.686 12.6058V16.9162L116.692 16.9169ZM113.699 14.2571H113.372C113.262 14.2572 113.153 14.2648 113.045 14.2799L111.887 14.4171C111.498 14.4787 111.166 14.5854 110.87 14.7385C110.586 14.8817 110.338 15.0854 110.145 15.3348C109.957 15.5793 109.865 15.8937 109.865 16.2748C109.865 16.7028 109.989 17.0655 110.238 17.364C110.488 17.6625 110.909 17.8111 111.501 17.8111C111.797 17.8111 112.084 17.773 112.343 17.6968C112.602 17.6206 112.842 17.5215 113.045 17.3983C113.247 17.2751 113.407 17.1423 113.524 16.9969C113.641 16.8514 113.699 16.7174 113.699 16.5955L113.698 14.2564L113.699 14.2571Z" fill="#0F5379"/>
<path fill-rule="evenodd" clip-rule="evenodd" d="M0 9.17466L16.9686 9.17783V2.94434L0 9.17466Z" fill="#F2994A"/>
<path opacity="0.51" fill-rule="evenodd" clip-rule="evenodd" d="M16.9688 2.94305V24.9505L24.9835 0L16.9688 2.94305Z" fill="#56CCF2"/>
<path fill-rule="evenodd" clip-rule="evenodd" d="M16.9711 9.17705L10.5547 9.17578L16.9711 24.9504V9.17705Z" fill="#2D9CDB"/>
<path fill-rule="evenodd" clip-rule="evenodd" d="M0 9.17383L12.198 13.2232L10.5529 9.17573L0 9.17383Z" fill="#EB5757"/>
</svg>
