<?xml version="1.0" encoding="utf-8"?>
<!-- Generator: Adobe Illustrator 26.0.3, SVG Export Plug-In . SVG Version: 6.00 Build 0)  -->
<svg version="1.1" id="Layer_1" xmlns="http://www.w3.org/2000/svg" xmlns:xlink="http://www.w3.org/1999/xlink" x="0px" y="0px"
	 viewBox="0 0 1317 327" style="enable-background:new 0 0 1317 327;" xml:space="preserve">
<style type="text/css">
	.st0{fill:url(#SVGID_1_);}
	.st1{fill:#FFFFFF;}
	.st2{fill:#ffff;}
</style>
<g>
	
		<linearGradient id="SVGID_1_" gradientUnits="userSpaceOnUse" x1="404.9807" y1="722.3589" x2="-16.9004" y2="-223.5671" gradientTransform="matrix(1 0 0 -1 0 328)">
		<stop  offset="0" style="stop-color:#63F4FD"/>
		<stop  offset="0.68" style="stop-color:#8274FE"/>
		<stop  offset="0.88" style="stop-color:#7C2BFF"/>
	</linearGradient>
	<path class="st0" d="M162.2,21.6l56.4,17.2c51.8,15.8,80.8,69.7,64.7,120.5l-41.6,154.7L86.4,260.6
		c-51.9-15.8-80.8-69.7-64.7-120.4l17.5-55.3C55.3,34.2,110.4,5.8,162.2,21.6z"/>
	<path class="st1" d="M161.8,148.3c2.8,1.6,6,2.4,9.2,2.3l9.3-0.1c1,0,2,0.2,3,0.5c1,0.4,1.8,0.9,2.6,1.6c0.7,0.7,1.3,1.5,1.8,2.5
		c0.4,0.9,0.6,1.9,0.6,2.9v0.1c0,2-0.8,4-2.3,5.4c-1.4,1.5-3.4,2.3-5.4,2.3h-0.1l-25.7,0.3h0c-0.4,0-0.8-0.1-1.2-0.2
		c-0.4-0.2-0.8-0.4-1.1-0.7c-0.1-0.1-0.2-0.2-0.3-0.4c-0.1,0-0.3,0-0.4-0.1c-0.9-0.2-1.6-0.8-2-1.5L129,128.6c-0.5-0.9-0.8-2-0.9-3
		c-0.1-1-0.1-2,0.2-3c0.3-1,0.7-1.9,1.4-2.7s1.4-1.3,2.3-1.8c1.8-1,3.9-1.3,5.9-0.8c2,0.5,3.7,1.8,4.8,3.6l12.3,20.9
		C156.6,144.5,158.9,146.8,161.8,148.3z"/>
	<path class="st1" d="M231.1,172c-2.7,10-7.4,19.3-13.8,27.4c-6.4,8.1-14.3,14.9-23.4,19.9c-38.2,21.6-87.2,8.8-109.2-28.7
		c-5.2-8.9-8.6-18.8-10-29S74,141,76.8,131s7.4-19.3,13.8-27.4c6.4-8.1,14.3-14.9,23.4-19.9c10.7-6,22.6-9.6,34.8-10.4c0,0,0,0,0,0
		c1.5-0.1,3,0.2,4.4,0.8c1.4,0.6,2.6,1.5,3.6,2.6c1,1.1,1.7,2.5,2.1,4c0.4,1.5,0.4,3,0.1,4.5c-0.5,2.3-1.8,4.5-3.6,6
		c-1.8,1.5-4.1,2.5-6.5,2.6v0c-8.6,0.7-17,3.3-24.6,7.6c-6.7,3.7-12.6,8.7-17.3,14.7c-4.7,6-8.2,12.9-10.2,20.3
		c-2,7.4-2.5,15.1-1.5,22.7s3.5,14.9,7.4,21.5c8.1,13.4,21,23.1,36.1,27c15.1,4,31.2,1.9,44.8-5.8c6.7-3.7,12.6-8.7,17.3-14.7
		c4.7-6,8.2-12.9,10.2-20.3c2-7.4,2.5-15.1,1.5-22.7c-1-7.6-3.5-14.9-7.4-21.5c-5.9-9.9-14.5-17.8-24.8-22.8v0c-2.2-1-3.9-2.7-5-4.8
		c-1.1-2.1-1.5-4.5-1.1-6.9c0.3-1.5,0.9-2.9,1.8-4.1c0.9-1.2,2.1-2.2,3.4-2.9c1.3-0.7,2.8-1.1,4.3-1.1c1.5,0,3,0.3,4.4,0.9
		c14.6,6.7,26.8,17.8,34.9,31.6c5.2,8.9,8.6,18.8,10,29C234.6,151.6,233.9,162,231.1,172z"/>
	<path class="st2" d="M388,246.6c-3.7,0.2-7.3-1-10.1-3.4c-2.8-3.2-4.6-7.1-5.1-11.4l-27.5-144h16.8l25.1,137h0.2l40.6-128.6h7.1
		c1.2-0.1,2.4,0.1,3.6,0.5c1.2,0.4,2.2,1.1,3.1,1.9c2,2,3.4,4.5,4.2,7.3l36,118.8h0.2l25.1-136.9h16.8l-27.4,144
		c-0.5,4.2-2.3,8.2-5.1,11.4c-2.8,2.4-6.5,3.6-10.1,3.4h-6.9l-39.1-127.9h-0.2l-40.5,127.9H388z M579.6,248.4
		c-12.9,0-23.3-3.7-31.1-11.1c-7.9-7.4-11.8-17.4-11.8-29.9v-32.4c0-13,3.9-23.4,11.8-31.3c7.8-7.9,18.2-11.9,31.1-12h18.9
		c12.3,0,22.2,3.9,29.8,11.6s11.3,17.9,11.3,30.6v20h-86.3v13.6c-0.3,7.1,2.3,14.1,7.2,19.3c2.5,2.4,5.5,4.3,8.8,5.6
		c3.3,1.3,6.8,1.8,10.3,1.7h17.5c6.8,0.3,13.4-1.9,18.7-6.1c2.4-2.1,4.2-4.7,5.5-7.6s1.8-6,1.7-9.2h16.2c0.2,5.1-0.8,10.2-2.7,14.9
		c-2,4.7-5,8.9-8.8,12.3c-7.7,6.8-17.8,10.2-30.4,10.2L579.6,248.4z M622.9,179.7v-5.9c0.4-7.3-2-14.4-6.7-20
		c-2.2-2.5-4.9-4.5-8-5.8c-3.1-1.3-6.4-1.9-9.8-1.8h-18.9c-3.6-0.1-7.1,0.5-10.4,1.9c-3.3,1.4-6.3,3.4-8.7,6
		c-5,5.8-7.5,13.3-7.2,20.9v4.9L622.9,179.7z M714,248.4c-5.7-0.2-11.2-1.7-16.2-4.5c-5.3-2.8-9.8-6.9-13.2-11.8v14.6h-16.1V87.8
		h16.6v59c3.4-4.7,7.8-8.5,12.9-11.1c5.1-2.7,10.8-4.1,16.6-4.1h16.4c7.3-0.1,14.5,1.7,20.7,5.4c6.2,3.5,11.1,8.7,14.3,15
		c3.6,6.8,5.5,14.3,5.3,22v29.2c0.2,8.2-1.6,16.3-5.3,23.6c-3.2,6.6-8.2,12.1-14.5,15.9c-6.5,3.9-13.9,5.8-21.4,5.7L714,248.4z
		 M729.7,233.8c3.4,0.1,6.9-0.6,10-2.1c3.1-1.5,5.9-3.6,8-6.3c5-6.3,7.5-14.2,7.1-22.2v-29.2c0.3-7.4-2.1-14.6-6.9-20.2
		c-2.1-2.5-4.8-4.5-7.8-5.8c-3-1.3-6.2-2-9.5-1.9h-15.5c-3.8-0.1-7.6,0.7-11.2,2.2c-3.5,1.5-6.7,3.7-9.4,6.5
		c-5.8,6.1-9.2,14.2-9.4,22.6v27.7c0.3,5.2,1.8,10.2,4.6,14.6c2.6,4.3,6.3,7.9,10.6,10.5c4.1,2.5,8.8,3.8,13.6,3.8L729.7,233.8z"/>
	<path class="st2" d="M983.5,87.5l-27.8,144c-0.5,4.2-2.3,8.2-5.2,11.3c-2.9,2.4-7,3.4-10.4,3.4h-8.5l0,0c-0.6,0-1.3,0-2,0h-6.9
		L888,133.2l-36.6,113.1h-7.1c-0.7,0-1.4,0-2,0h-6.4c-3.8,0-7.3-1-10.1-3.4c-2.8-3.2-4.6-7.1-5.1-11.3l-27.5-144h24l23.2,121
		L876,96.2h16.6c1.3,0,2.7,0,3.6,0.3c1.2,0.4,2.2,1.1,3.1,2c2,2,3.5,4.5,4.3,7.3L936,210.7l23-123.2H983.5z"/>
	<path class="st2" d="M1092.2,143.3c-8-7.9-18.7-11.8-32.1-11.8h-7.8c-1.7-0.1-3.5-0.1-5.5-0.1h-19.3c-13.6,0.1-23.2,3.8-31.2,11.7
		c-7.8,7.9-11.8,18.2-11.8,31.1v31.1c0,12.8,3.9,23.2,11.8,31.1c7.8,7.9,18.2,11.8,31.1,11.8l19,0.3c1.7,0,3.3-0.1,4.9-0.2l8.3,0
		c13.6,0,24.4-4,32.6-11.8s12.2-18.2,12.2-31v-31C1104.3,161.5,1100.2,151.2,1092.2,143.3z M1076.3,205.2c0,8.4-0.7,15.5-5.5,20.7
		c0,0,0,0,0,0c-4,3.4-9.1,4.1-18.2,4.1h-14.7c-8.2,0-15.9-0.3-20.8-5.5c-4.9-5.2-6.1-10.5-6.1-19.1v-31c0-8.5,1.1-13.2,6.1-18.5
		c5-5.3,12.6-6.1,20.8-6.1h14.7c6.3,0,13,0.5,18,4.5c0,0,0,0,0,0c0.1,0.2,0.3,0.3,0.4,0.4c4.6,5.7,4.8,11.1,5.3,19.5V205.2z"/>
	<path class="st2" d="M1195.6,132.8v15.8h-9.8c-12.2,0-23.2,0-30.6,7.3c-3.3,3.4-5.9,7.4-7.5,11.8c-1.7,4.4-2.4,9.1-2.2,13.8v64.9
		h-8.3v0h-16.6l0-113.2h24.8v7.8c1.6-1.2,3.3-2.3,5.2-3.3c6-3.2,12.7-4.9,19.6-5h10.2v0c1.8,0,3.8,0,6.2,0L1195.6,132.8z"/>
	<polygon class="st2" points="1300.3,246.3 1300.3,246.4 1280.4,246.2 1240.7,199.1 1228.7,211.5 1228.7,246.3 1219.1,246.3 
		1219.1,246.3 1203.5,246.2 1203.5,87.5 1219.4,87.5 1228.7,87.6 1228.7,179.4 1276.3,133.1 1305.1,133.1 1255.5,183.8 
		1309.1,246.3 	"/>
</g>
</svg>
