<svg width="118" height="50" viewBox="0 0 118 50" fill="none" xmlns="http://www.w3.org/2000/svg">
<g clip-path="url(#clip0_19550_2530)">
<path d="M33.5384 22.5845L27.0162 16.0623C26.7907 15.8529 26.4525 15.8529 26.2431 16.0623L24.9548 17.3506L30.1887 22.5845C30.3981 22.7939 30.3981 23.1482 30.1887 23.3575L24.7938 28.7525L26.0821 30.0408C26.3076 30.2502 26.6458 30.2502 26.8551 30.0408L33.5223 23.3736C33.7477 23.1482 33.7478 22.81 33.5384 22.5845Z" fill="#009C9C"/>
<path d="M22.4264 16.5469L21.9594 16.0799C21.7339 15.8705 21.3957 15.8705 21.1864 16.0799L19.898 17.3682L20.7515 18.2217L22.4264 19.8966L24.1012 18.2217L22.4264 16.5469Z" fill="#40E3E3"/>
<path d="M22.2814 26.2402L20.6066 27.9151L19.7531 28.7686L21.0414 30.0569C21.2669 30.2663 21.605 30.2663 21.8144 30.0569L22.2814 29.5899L23.9563 27.9151L22.2814 26.2402Z" fill="#40E3E3"/>
<path d="M25.1481 22.5854C25.3574 22.8109 25.3574 23.1491 25.1481 23.3585L22.2815 26.225L23.9563 27.8999L28.4978 23.3585C28.7071 23.1491 28.7071 22.7948 28.4978 22.5854L24.1174 18.2051L22.4264 19.8799L25.1481 22.5854Z" fill="#1ABAB8"/>
<path d="M14.5031 22.7456L19.0445 18.2042L17.3696 16.5293L16.8865 16.0623C16.661 15.8529 16.3229 15.8529 16.1135 16.0623L9.44632 22.7456C9.23697 22.9549 9.23697 23.3092 9.44632 23.5186L15.9686 30.0408C16.194 30.2502 16.5322 30.2502 16.7416 30.0408L17.2247 29.5738L18.8995 27.8989L14.5192 23.5186C14.2937 23.3092 14.2937 22.971 14.5031 22.7456Z" fill="#87F0F0"/>
<path d="M19.5598 22.746L21.5568 20.7491L19.8819 19.0742L19.0284 18.2207L14.5192 22.7621C14.3098 22.9715 14.3098 23.3258 14.5192 23.5351L18.8835 27.8994L19.737 27.0459L21.4118 25.371L19.5598 23.519C19.3505 23.3258 19.3505 22.9715 19.5598 22.746Z" fill="#40E3E3"/>
<path d="M19.5598 23.5199L21.4118 25.3719L23.4087 23.375C23.6181 23.1656 23.6181 22.8113 23.4087 22.602L21.5567 20.75L19.5598 22.7469C19.3665 22.9724 19.3665 23.3106 19.5598 23.5199Z" fill="#17CFCF"/>
<path d="M38.7723 21.2168C38.7884 20.476 38.9333 19.7513 39.2071 19.0588C39.4647 18.4307 39.8512 17.851 40.3344 17.3839C40.8658 16.9008 41.4939 16.5304 42.1703 16.305C42.9916 16.0312 43.8612 15.9024 44.7147 15.9185C45.681 15.8862 46.6473 16.0312 47.5491 16.3533C48.1933 16.5948 48.8052 16.9491 49.3206 17.4162C49.7232 17.7704 50.0292 18.2053 50.2385 18.6884C50.3996 19.0427 50.4962 19.4131 50.5445 19.7996C50.5606 19.9445 50.5123 20.0895 50.3996 20.1861C50.2868 20.2827 50.158 20.331 50.0131 20.331H48.4187C48.2899 20.331 48.1772 20.2988 48.0805 20.2183C48 20.1539 47.9356 20.0734 47.9034 19.9928C47.8712 19.9445 47.8068 19.8318 47.694 19.6547C47.5491 19.4453 47.372 19.252 47.1626 19.1071C46.8727 18.8977 46.5506 18.7206 46.2124 18.5918C45.7454 18.4307 45.2301 18.3502 44.7308 18.3663C43.8773 18.318 43.0238 18.6079 42.3635 19.1554C41.7677 19.703 41.4295 20.476 41.4134 21.2973C41.3812 21.7965 41.3812 22.328 41.3812 22.9077C41.3812 23.4714 41.3812 24.0189 41.4134 24.5181C41.4456 25.6132 41.7677 26.4024 42.3635 26.8855C43.0399 27.4008 43.8773 27.6585 44.7147 27.6263C45.1657 27.6263 45.6166 27.578 46.0514 27.4652C46.4379 27.3686 46.7922 27.1915 47.0982 26.9499C47.4042 26.7083 47.6457 26.3862 47.7907 26.0158C47.9678 25.5649 48.0483 25.0818 48.0322 24.5987V24.4376H45.6327C45.4878 24.4376 45.3589 24.3893 45.2623 24.2766C45.1657 24.18 45.1012 24.0511 45.1012 23.9062V22.5051C45.1012 22.2152 45.3428 21.9737 45.6327 21.9737H50.1741C50.464 21.9737 50.7055 22.2152 50.7055 22.5051V24.6631C50.7216 25.4039 50.5928 26.1447 50.3351 26.8372C50.0936 27.4813 49.7071 28.0611 49.2078 28.5442C48.6764 29.0435 48.0322 29.43 47.3397 29.6715C45.6488 30.203 43.829 30.203 42.122 29.6715C41.4456 29.4461 40.8175 29.0757 40.3022 28.5925C39.819 28.1094 39.4325 27.5297 39.191 26.8855C38.9333 26.193 38.7884 25.4522 38.7723 24.7114C38.7723 24.4698 38.7562 24.18 38.7401 23.8901C38.7401 23.5841 38.7401 23.2781 38.7401 22.956C38.7401 22.6339 38.7401 22.328 38.7401 22.0381C38.7401 21.7321 38.7562 21.4744 38.7723 21.2168" fill="#424A52"/>
<path d="M56.7769 21.828C56.4387 21.8119 56.1166 21.8763 55.7945 21.9891C55.5369 22.0857 55.3114 22.2306 55.1182 22.4239C54.941 22.5849 54.7961 22.7943 54.6994 23.0197C54.6028 23.213 54.5384 23.4223 54.5223 23.6317H58.9671C58.9349 23.4223 58.8866 23.213 58.8221 23.0197C58.7416 22.7943 58.6289 22.601 58.4678 22.4239C58.2907 22.2306 58.0652 22.0857 57.8237 21.9891C57.4855 21.8602 57.1312 21.8119 56.7769 21.828ZM51.9617 24.7751C51.9617 24.0665 52.0744 23.374 52.2999 22.6976C52.5093 22.0696 52.8313 21.4898 53.2662 20.9906C53.6849 20.5075 54.2163 20.121 54.7961 19.8633C55.4241 19.5895 56.1005 19.4446 56.7769 19.4446C57.4533 19.4285 58.1297 19.5734 58.7577 19.8472C59.3375 20.1048 59.8689 20.4752 60.3037 20.9423C60.7225 21.4093 61.0606 21.9407 61.2861 22.5366C61.5116 23.1486 61.6404 23.7927 61.6243 24.453V25.3387C61.6243 25.6286 61.3827 25.8702 61.0929 25.8702H54.5223C54.5223 26.144 54.5867 26.4177 54.6994 26.6593C54.8283 26.8848 54.9893 27.078 55.1987 27.2229C55.4241 27.384 55.6657 27.4967 55.9234 27.5772C56.1971 27.6578 56.487 27.69 56.7769 27.69C57.1151 27.7061 57.4694 27.6578 57.8076 27.5611C58.033 27.4967 58.2585 27.384 58.4517 27.239C58.5645 27.1585 58.6772 27.078 58.806 27.0136C58.9188 26.9653 59.0476 26.9492 59.1764 26.9492H60.7547C60.8996 26.9492 61.0445 27.0136 61.1412 27.1102C61.2539 27.2068 61.3022 27.3357 61.2861 27.4806C61.2378 27.7383 61.1412 27.9799 60.9801 28.1892C60.7547 28.5274 60.4648 28.8173 60.1266 29.0427C59.6918 29.3487 59.2086 29.5903 58.7094 29.7513C58.0813 29.9607 57.4211 30.0573 56.7769 30.0412C56.1005 30.0412 55.4241 29.9124 54.7961 29.6547C54.2163 29.4131 53.6849 29.0427 53.2662 28.5757C52.8313 28.0765 52.5093 27.5128 52.2999 26.8848C52.0583 26.2245 51.9456 25.4998 51.9617 24.7751Z" fill="#424A52"/>
<path d="M66.3428 26.1925C66.3267 26.5468 66.4394 26.9011 66.6648 27.1588C66.8742 27.4003 67.2768 27.5292 67.8727 27.5292H69.0644C69.3543 27.5292 69.5958 27.7707 69.5958 28.0606V29.3651C69.5958 29.6549 69.3543 29.8965 69.0644 29.8965H67.5989C66.3589 29.8965 65.4248 29.5905 64.7645 28.9947C64.1043 28.3988 63.7822 27.4809 63.7661 26.2569V22.0215H62.4616C62.3167 22.0215 62.1878 21.9732 62.0912 21.8605C61.9946 21.7638 61.9302 21.635 61.9302 21.4901V20.1856C61.9302 20.0407 61.9785 19.9118 62.0912 19.8152C62.1878 19.7186 62.3167 19.6542 62.4616 19.6542H63.7661V16.4494C63.7661 16.1595 64.0076 15.918 64.2975 15.918H65.7952C66.0851 15.918 66.3267 16.1595 66.3267 16.4494V19.6542H68.8711C69.161 19.6703 69.3704 19.8957 69.3865 20.1856V21.4901C69.3865 21.7799 69.1449 22.0215 68.855 22.0215H66.3105L66.3428 26.1925Z" fill="#424A52"/>
<path d="M79.2745 24.7588L77.1005 19.1546L74.9425 24.7588H79.2745ZM78.1795 16.1108C78.3566 16.0947 78.5176 16.1592 78.6465 16.2719C78.7753 16.4168 78.8719 16.594 78.9364 16.7711L83.7515 29.2197C83.7676 29.2681 83.7676 29.3164 83.7676 29.3486C83.7676 29.6385 83.5261 29.88 83.2362 29.88H81.819C81.6258 29.8961 81.4164 29.8478 81.2715 29.719C81.1749 29.6223 81.1104 29.5096 81.0621 29.3969L80.2086 27.2067H73.9923L73.1388 29.3969C73.0905 29.5257 73.01 29.6223 72.9295 29.719C72.7684 29.8478 72.5752 29.9122 72.3819 29.88H70.9647C70.6749 29.88 70.4333 29.6385 70.4333 29.3486C70.4333 29.3003 70.4333 29.2519 70.4494 29.2197L75.2646 16.7711C75.329 16.594 75.4256 16.4168 75.5545 16.2719C75.6833 16.1592 75.8604 16.0947 76.0215 16.1108H78.1795Z" fill="#424A52"/>
<path d="M92.2063 25.3231C92.2385 24.9527 92.2385 24.5823 92.2063 24.228C92.1258 23.3745 91.8681 22.7626 91.4172 22.3922C90.9663 22.0057 90.3865 21.8124 89.7906 21.8285C89.1948 21.8124 88.615 22.0057 88.1641 22.3922C87.6971 22.8109 87.4394 23.4067 87.4072 24.0187C87.375 24.2603 87.3589 24.5179 87.375 24.7595C87.375 25.0172 87.3911 25.2587 87.4072 25.5003C87.4394 26.1122 87.7132 26.692 88.1641 27.1107C88.615 27.5133 89.1948 27.7227 89.7906 27.7066C90.3865 27.7227 90.9663 27.5133 91.4172 27.1429C91.8681 26.7725 92.1258 26.1606 92.2063 25.3231ZM90.3865 30.09C90.0161 30.09 89.6457 30.0578 89.2914 29.9773C89.0015 29.9129 88.7117 29.8162 88.4379 29.6874C88.2285 29.5747 88.0192 29.4458 87.8259 29.2848C87.681 29.1721 87.536 29.0432 87.4072 28.8983V33.0854C87.4072 33.3753 87.1656 33.6168 86.8758 33.6168H85.3942C85.1043 33.6168 84.8627 33.3753 84.8627 33.0854V20.1859C84.8627 19.896 85.1043 19.6544 85.3942 19.6544H86.8919C87.1817 19.6544 87.4233 19.896 87.4233 20.1859V20.6368C87.5521 20.4918 87.681 20.363 87.842 20.2503C88.0353 20.1053 88.2446 19.9765 88.4701 19.8638C88.7439 19.7349 89.0337 19.6383 89.3236 19.5739C89.6779 19.4934 90.0483 19.4612 90.4187 19.4612C91.0307 19.4451 91.6426 19.59 92.2063 19.8477C92.7216 20.0892 93.1887 20.4435 93.5591 20.8784C93.9456 21.3132 94.2354 21.8124 94.4448 22.3599C94.6541 22.9236 94.783 23.5034 94.8152 24.0992C94.8313 24.2925 94.8313 24.5179 94.8313 24.7917C94.8313 25.0655 94.8313 25.2909 94.8152 25.4842C94.783 26.08 94.6702 26.6759 94.4448 27.2234C94.2354 27.771 93.9456 28.2702 93.5591 28.705C93.1887 29.1399 92.7216 29.478 92.2063 29.7357C91.6104 29.9773 90.9985 30.1061 90.3865 30.09Z" fill="#424A52"/>
<path d="M103.334 25.3231C103.367 24.9527 103.367 24.5823 103.334 24.228C103.254 23.3745 102.996 22.7626 102.545 22.3922C102.094 22.0057 101.515 21.8124 100.919 21.8285C100.323 21.8124 99.7431 22.0057 99.2921 22.3922C98.8251 22.8109 98.5675 23.4067 98.5352 24.0187C98.503 24.2603 98.4869 24.5179 98.503 24.7595C98.503 25.0172 98.5191 25.2587 98.5352 25.5003C98.5675 26.1122 98.8412 26.692 99.2921 27.1107C99.7431 27.5133 100.323 27.7227 100.919 27.7066C101.515 27.7227 102.094 27.5133 102.545 27.1429C102.996 26.7725 103.254 26.1606 103.334 25.3231ZM101.498 30.0739C101.128 30.0739 100.758 30.0417 100.403 29.9612C100.113 29.8968 99.8236 29.8001 99.5498 29.6713C99.3244 29.5586 99.115 29.4297 98.9379 29.2848C98.7929 29.1721 98.648 29.0432 98.5191 28.8983V33.0854C98.5191 33.2303 98.4547 33.3592 98.3581 33.4558C98.2615 33.5524 98.1326 33.6168 97.9877 33.6168H96.49C96.2001 33.6168 95.9586 33.3753 95.9586 33.0854V20.1859C95.9586 19.896 96.2001 19.6544 96.49 19.6544H97.9877C98.2776 19.6544 98.5191 19.896 98.5191 20.1859V20.6368C98.648 20.4918 98.7929 20.363 98.9379 20.2503C99.1311 20.1053 99.3405 19.9765 99.5498 19.8638C99.8236 19.7349 100.113 19.6383 100.403 19.5739C100.758 19.4934 101.128 19.4612 101.498 19.4612C102.11 19.4451 102.722 19.59 103.286 19.8477C103.801 20.0892 104.268 20.4435 104.639 20.8784C105.025 21.3132 105.315 21.8124 105.525 22.3599C105.734 22.9236 105.863 23.5034 105.895 24.0992C105.911 24.2925 105.911 24.5179 105.911 24.7917C105.911 25.0655 105.911 25.2909 105.895 25.4842C105.863 26.08 105.75 26.6759 105.525 27.2234C105.315 27.771 105.025 28.2702 104.639 28.705C104.252 29.1399 103.801 29.478 103.286 29.7357C102.722 29.9934 102.11 30.1222 101.498 30.1222" fill="#424A52"/>
</g>
<defs>
<clipPath id="clip0_19550_2530">
<rect width="117.986" height="49.3616" fill="white"/>
</clipPath>
</defs>
</svg>
